<svg width="70" height="70" viewBox="0 0 70 70" fill="none" xmlns="http://www.w3.org/2000/svg">
<path d="M34.9993 0H0V35.0007V70H34.9993H70V35.0007V0H34.9993Z" fill="#002A5F"/>
<path d="M50.2936 18.0813H51.744C53.1158 18.0799 53.7528 19.3588 53.7528 20.326V35.3793C53.7542 36.464 53.1158 37.4697 51.887 37.4625H50.2936V18.0813ZM51.7531 17.5232H45.9835V18.0813H47.5102V51.9189H45.9835V52.5174H52.4928V51.9189H50.2934V38.1503H52.1899C54.9493 38.1503 56.5199 36.6969 56.5199 34.7432V21.2211C56.5201 19.2723 55.1644 17.5202 51.7531 17.5232Z" fill="white"/>
<path d="M21.2151 17.9722C21.2151 18.5304 20.8896 18.4884 20.6288 18.3052C19.6915 17.647 18.5423 17.1735 17.5159 17.1812C15.8426 17.1934 13.4449 18.0035 13.4372 21.5315V47.4712C13.4626 51.9768 15.6308 52.8187 17.7681 52.8413C19.432 52.8572 20.2242 51.9787 20.8973 51.6854C21.2525 51.5305 21.641 51.8889 21.641 52.5546H22.3319V36.0518H23.7181V35.497H17.8633V36.0518H19.5617V50.2469C19.5617 51.3979 18.7798 52.269 17.7947 52.2708C16.8457 52.2708 16.1187 51.3695 16.1187 50.2469V20.5002C16.1173 19.6914 16.2608 17.8112 17.5112 17.8201C19.9183 17.8381 21.196 24.8773 21.2137 28.5187H21.9046V17.5037H21.217L21.2151 17.9722Z" fill="white"/>
<path d="M31.8437 37.5102L33.5302 22.4105L35.252 37.5102H31.8437ZM35.3225 38.1278L36.8909 51.9113H35.3493V52.5095H41.1425V51.9113H39.616L35.767 17.5154H33.3018L29.7262 50.0012C29.5157 51.1681 29.4068 51.887 27.7293 51.9122V52.5098H32.0735V51.9115C30.8441 51.9124 30.2874 51.1263 30.4082 50.2908L31.7739 38.128H35.3225V38.1278Z" fill="white"/>
</svg>
